<mxfile host="app.diagrams.net" modified="2023-10-31T22:35:36.340Z" agent="Mozilla/5.0 (Macintosh; Intel Mac OS X 10_15_7) AppleWebKit/605.1.15 (KHTML, like Gecko) Version/17.0 Safari/605.1.15" etag="1ynvev6VxOZTLNnW0p_1" version="22.0.8" type="github">
  <diagram id="C5RBs43oDa-KdzZeNtuy" name="Page-1">
    <mxGraphModel dx="1466" dy="1166" grid="1" gridSize="10" guides="1" tooltips="1" connect="1" arrows="1" fold="1" page="1" pageScale="1" pageWidth="1100" pageHeight="850" math="0" shadow="0">
      <root>
        <mxCell id="WIyWlLk6GJQsqaUBKTNV-0" />
        <mxCell id="WIyWlLk6GJQsqaUBKTNV-1" parent="WIyWlLk6GJQsqaUBKTNV-0" />
        <mxCell id="bMznROI8uIrrXHA2IiII-20" value="&lt;span style=&quot;font-weight: normal;&quot;&gt;«Resource»&lt;br style=&quot;border-color: var(--border-color);&quot;&gt;&lt;/span&gt;Order" style="swimlane;fontStyle=1;align=center;verticalAlign=top;childLayout=stackLayout;horizontal=1;startSize=42;horizontalStack=0;resizeParent=1;resizeParentMax=0;resizeLast=0;collapsible=1;marginBottom=0;whiteSpace=wrap;html=1;" parent="WIyWlLk6GJQsqaUBKTNV-1" vertex="1">
          <mxGeometry x="570" y="308" width="160" height="206" as="geometry" />
        </mxCell>
        <mxCell id="bMznROI8uIrrXHA2IiII-21" value="+ totalValue: ###.##" style="text;strokeColor=none;fillColor=none;align=left;verticalAlign=top;spacingLeft=4;spacingRight=4;overflow=hidden;rotatable=0;points=[[0,0.5],[1,0.5]];portConstraint=eastwest;whiteSpace=wrap;html=1;" parent="bMznROI8uIrrXHA2IiII-20" vertex="1">
          <mxGeometry y="42" width="160" height="26" as="geometry" />
        </mxCell>
        <mxCell id="bMznROI8uIrrXHA2IiII-24" value="+ currency: string" style="text;strokeColor=none;fillColor=none;align=left;verticalAlign=top;spacingLeft=4;spacingRight=4;overflow=hidden;rotatable=0;points=[[0,0.5],[1,0.5]];portConstraint=eastwest;whiteSpace=wrap;html=1;" parent="bMznROI8uIrrXHA2IiII-20" vertex="1">
          <mxGeometry y="68" width="160" height="26" as="geometry" />
        </mxCell>
        <mxCell id="bMznROI8uIrrXHA2IiII-154" value="+ billingAddress: Address" style="text;strokeColor=#d6b656;fillColor=#fff2cc;align=left;verticalAlign=top;spacingLeft=4;spacingRight=4;overflow=hidden;rotatable=0;points=[[0,0.5],[1,0.5]];portConstraint=eastwest;whiteSpace=wrap;html=1;" parent="bMznROI8uIrrXHA2IiII-20" vertex="1">
          <mxGeometry y="94" width="160" height="26" as="geometry" />
        </mxCell>
        <mxCell id="bMznROI8uIrrXHA2IiII-155" value="+ shippingAddress: Address" style="text;strokeColor=#d6b656;fillColor=#fff2cc;align=left;verticalAlign=top;spacingLeft=4;spacingRight=4;overflow=hidden;rotatable=0;points=[[0,0.5],[1,0.5]];portConstraint=eastwest;whiteSpace=wrap;html=1;" parent="bMznROI8uIrrXHA2IiII-20" vertex="1">
          <mxGeometry y="120" width="160" height="26" as="geometry" />
        </mxCell>
        <mxCell id="bMznROI8uIrrXHA2IiII-22" value="" style="line;strokeWidth=1;fillColor=none;align=left;verticalAlign=middle;spacingTop=-1;spacingLeft=3;spacingRight=3;rotatable=0;labelPosition=right;points=[];portConstraint=eastwest;strokeColor=inherit;" parent="bMznROI8uIrrXHA2IiII-20" vertex="1">
          <mxGeometry y="146" width="160" height="8" as="geometry" />
        </mxCell>
        <mxCell id="bMznROI8uIrrXHA2IiII-23" value="GET orders/:id" style="text;strokeColor=none;fillColor=none;align=left;verticalAlign=top;spacingLeft=4;spacingRight=4;overflow=hidden;rotatable=0;points=[[0,0.5],[1,0.5]];portConstraint=eastwest;whiteSpace=wrap;html=1;" parent="bMznROI8uIrrXHA2IiII-20" vertex="1">
          <mxGeometry y="154" width="160" height="26" as="geometry" />
        </mxCell>
        <mxCell id="bMznROI8uIrrXHA2IiII-46" value="GET orders/:id/lineitems" style="text;strokeColor=none;fillColor=none;align=left;verticalAlign=top;spacingLeft=4;spacingRight=4;overflow=hidden;rotatable=0;points=[[0,0.5],[1,0.5]];portConstraint=eastwest;whiteSpace=wrap;html=1;" parent="bMznROI8uIrrXHA2IiII-20" vertex="1">
          <mxGeometry y="180" width="160" height="26" as="geometry" />
        </mxCell>
        <mxCell id="bMznROI8uIrrXHA2IiII-25" value="&lt;span style=&quot;font-weight: normal;&quot;&gt;«Resource»&lt;br style=&quot;border-color: var(--border-color);&quot;&gt;&lt;/span&gt;Customer" style="swimlane;fontStyle=1;align=center;verticalAlign=top;childLayout=stackLayout;horizontal=1;startSize=40;horizontalStack=0;resizeParent=1;resizeParentMax=0;resizeLast=0;collapsible=1;marginBottom=0;whiteSpace=wrap;html=1;" parent="WIyWlLk6GJQsqaUBKTNV-1" vertex="1">
          <mxGeometry x="820" y="310" width="210" height="152" as="geometry" />
        </mxCell>
        <mxCell id="bMznROI8uIrrXHA2IiII-13" value="+ name: string" style="text;strokeColor=none;fillColor=none;align=left;verticalAlign=top;spacingLeft=4;spacingRight=4;overflow=hidden;rotatable=0;points=[[0,0.5],[1,0.5]];portConstraint=eastwest;whiteSpace=wrap;html=1;" parent="bMznROI8uIrrXHA2IiII-25" vertex="1">
          <mxGeometry y="40" width="210" height="26" as="geometry" />
        </mxCell>
        <mxCell id="bMznROI8uIrrXHA2IiII-27" value="" style="line;strokeWidth=1;fillColor=none;align=left;verticalAlign=middle;spacingTop=-1;spacingLeft=3;spacingRight=3;rotatable=0;labelPosition=right;points=[];portConstraint=eastwest;strokeColor=inherit;" parent="bMznROI8uIrrXHA2IiII-25" vertex="1">
          <mxGeometry y="66" width="210" height="8" as="geometry" />
        </mxCell>
        <mxCell id="bMznROI8uIrrXHA2IiII-14" value="+ GET customers/:id" style="text;strokeColor=none;fillColor=none;align=left;verticalAlign=top;spacingLeft=4;spacingRight=4;overflow=hidden;rotatable=0;points=[[0,0.5],[1,0.5]];portConstraint=eastwest;whiteSpace=wrap;html=1;" parent="bMznROI8uIrrXHA2IiII-25" vertex="1">
          <mxGeometry y="74" width="210" height="26" as="geometry" />
        </mxCell>
        <mxCell id="bMznROI8uIrrXHA2IiII-139" value="+ GET customers/:id/addresses" style="text;strokeColor=none;fillColor=none;align=left;verticalAlign=top;spacingLeft=4;spacingRight=4;overflow=hidden;rotatable=0;points=[[0,0.5],[1,0.5]];portConstraint=eastwest;whiteSpace=wrap;html=1;" parent="bMznROI8uIrrXHA2IiII-25" vertex="1">
          <mxGeometry y="100" width="210" height="26" as="geometry" />
        </mxCell>
        <mxCell id="bMznROI8uIrrXHA2IiII-140" value="+ GET customers/:id/orders" style="text;strokeColor=none;fillColor=none;align=left;verticalAlign=top;spacingLeft=4;spacingRight=4;overflow=hidden;rotatable=0;points=[[0,0.5],[1,0.5]];portConstraint=eastwest;whiteSpace=wrap;html=1;" parent="bMznROI8uIrrXHA2IiII-25" vertex="1">
          <mxGeometry y="126" width="210" height="26" as="geometry" />
        </mxCell>
        <mxCell id="bMznROI8uIrrXHA2IiII-38" value="purchased by" style="endArrow=diamondThin;html=1;endSize=12;startArrow=none;startSize=14;startFill=0;edgeStyle=orthogonalEdgeStyle;rounded=0;endFill=0;" parent="WIyWlLk6GJQsqaUBKTNV-1" source="bMznROI8uIrrXHA2IiII-20" target="bMznROI8uIrrXHA2IiII-25" edge="1">
          <mxGeometry x="-0.0323" y="16" relative="1" as="geometry">
            <mxPoint x="690" y="340" as="sourcePoint" />
            <mxPoint x="1020" y="340" as="targetPoint" />
            <Array as="points">
              <mxPoint x="780" y="411" />
              <mxPoint x="780" y="411" />
            </Array>
            <mxPoint x="1" as="offset" />
          </mxGeometry>
        </mxCell>
        <mxCell id="bMznROI8uIrrXHA2IiII-41" value="LineItem" style="swimlane;fontStyle=1;align=center;verticalAlign=top;childLayout=stackLayout;horizontal=1;startSize=30;horizontalStack=0;resizeParent=1;resizeParentMax=0;resizeLast=0;collapsible=1;marginBottom=0;whiteSpace=wrap;html=1;" parent="WIyWlLk6GJQsqaUBKTNV-1" vertex="1">
          <mxGeometry x="490" y="560" width="160" height="134" as="geometry" />
        </mxCell>
        <mxCell id="bMznROI8uIrrXHA2IiII-42" value="+ quantity: int" style="text;strokeColor=#9673a6;fillColor=#e1d5e7;align=left;verticalAlign=top;spacingLeft=4;spacingRight=4;overflow=hidden;rotatable=0;points=[[0,0.5],[1,0.5]];portConstraint=eastwest;whiteSpace=wrap;html=1;" parent="bMznROI8uIrrXHA2IiII-41" vertex="1">
          <mxGeometry y="30" width="160" height="26" as="geometry" />
        </mxCell>
        <mxCell id="bMznROI8uIrrXHA2IiII-43" value="+ unitPrice: ###.##" style="text;strokeColor=#9673a6;fillColor=#e1d5e7;align=left;verticalAlign=top;spacingLeft=4;spacingRight=4;overflow=hidden;rotatable=0;points=[[0,0.5],[1,0.5]];portConstraint=eastwest;whiteSpace=wrap;html=1;" parent="bMznROI8uIrrXHA2IiII-41" vertex="1">
          <mxGeometry y="56" width="160" height="26" as="geometry" />
        </mxCell>
        <mxCell id="bMznROI8uIrrXHA2IiII-156" value="+ discount: 0..100%" style="text;strokeColor=#9673a6;fillColor=#e1d5e7;align=left;verticalAlign=top;spacingLeft=4;spacingRight=4;overflow=hidden;rotatable=0;points=[[0,0.5],[1,0.5]];portConstraint=eastwest;whiteSpace=wrap;html=1;" parent="bMznROI8uIrrXHA2IiII-41" vertex="1">
          <mxGeometry y="82" width="160" height="26" as="geometry" />
        </mxCell>
        <mxCell id="bMznROI8uIrrXHA2IiII-178" value="+ vendor: VendorID" style="text;strokeColor=none;fillColor=none;align=left;verticalAlign=top;spacingLeft=4;spacingRight=4;overflow=hidden;rotatable=0;points=[[0,0.5],[1,0.5]];portConstraint=eastwest;whiteSpace=wrap;html=1;" parent="bMznROI8uIrrXHA2IiII-41" vertex="1">
          <mxGeometry y="108" width="160" height="26" as="geometry" />
        </mxCell>
        <mxCell id="bMznROI8uIrrXHA2IiII-47" value="" style="endArrow=open;html=1;endSize=12;startArrow=diamondThin;startSize=14;startFill=1;edgeStyle=orthogonalEdgeStyle;rounded=0;endFill=0;" parent="WIyWlLk6GJQsqaUBKTNV-1" source="bMznROI8uIrrXHA2IiII-20" target="bMznROI8uIrrXHA2IiII-41" edge="1">
          <mxGeometry x="0.2954" y="24" relative="1" as="geometry">
            <mxPoint x="580" y="446" as="sourcePoint" />
            <mxPoint x="580" y="630" as="targetPoint" />
            <Array as="points">
              <mxPoint x="680" y="605" />
            </Array>
            <mxPoint x="-4" y="-13" as="offset" />
          </mxGeometry>
        </mxCell>
        <mxCell id="bMznROI8uIrrXHA2IiII-53" value="&lt;span style=&quot;font-weight: normal;&quot;&gt;«Collection»&lt;br style=&quot;border-color: var(--border-color);&quot;&gt;&lt;/span&gt;Orders" style="swimlane;fontStyle=1;align=center;verticalAlign=top;childLayout=stackLayout;horizontal=1;startSize=40;horizontalStack=0;resizeParent=1;resizeParentMax=0;resizeLast=0;collapsible=1;marginBottom=0;whiteSpace=wrap;html=1;" parent="WIyWlLk6GJQsqaUBKTNV-1" vertex="1" collapsed="1">
          <mxGeometry x="610" y="220" width="110" height="40" as="geometry">
            <mxRectangle x="310" y="120" width="160" height="100" as="alternateBounds" />
          </mxGeometry>
        </mxCell>
        <mxCell id="bMznROI8uIrrXHA2IiII-55" value="" style="line;strokeWidth=1;fillColor=none;align=left;verticalAlign=middle;spacingTop=-1;spacingLeft=3;spacingRight=3;rotatable=0;labelPosition=right;points=[];portConstraint=eastwest;strokeColor=inherit;" parent="bMznROI8uIrrXHA2IiII-53" vertex="1">
          <mxGeometry y="40" width="160" height="8" as="geometry" />
        </mxCell>
        <mxCell id="bMznROI8uIrrXHA2IiII-56" value="GET /orders" style="text;strokeColor=none;fillColor=none;align=left;verticalAlign=top;spacingLeft=4;spacingRight=4;overflow=hidden;rotatable=0;points=[[0,0.5],[1,0.5]];portConstraint=eastwest;whiteSpace=wrap;html=1;" parent="bMznROI8uIrrXHA2IiII-53" vertex="1">
          <mxGeometry y="48" width="160" height="26" as="geometry" />
        </mxCell>
        <mxCell id="bMznROI8uIrrXHA2IiII-58" value="POST /orders" style="text;strokeColor=none;fillColor=none;align=left;verticalAlign=top;spacingLeft=4;spacingRight=4;overflow=hidden;rotatable=0;points=[[0,0.5],[1,0.5]];portConstraint=eastwest;whiteSpace=wrap;html=1;" parent="bMznROI8uIrrXHA2IiII-53" vertex="1">
          <mxGeometry y="74" width="160" height="26" as="geometry" />
        </mxCell>
        <mxCell id="bMznROI8uIrrXHA2IiII-73" value="" style="endArrow=open;html=1;endSize=12;startArrow=diamondThin;startSize=14;startFill=1;edgeStyle=orthogonalEdgeStyle;rounded=0;endFill=0;" parent="WIyWlLk6GJQsqaUBKTNV-1" source="bMznROI8uIrrXHA2IiII-53" edge="1">
          <mxGeometry x="-0.1471" y="40" relative="1" as="geometry">
            <mxPoint x="662" y="210.00000000000023" as="sourcePoint" />
            <mxPoint x="660" y="308" as="targetPoint" />
            <Array as="points">
              <mxPoint x="660" y="240" />
              <mxPoint x="660" y="240" />
            </Array>
            <mxPoint as="offset" />
          </mxGeometry>
        </mxCell>
        <mxCell id="bMznROI8uIrrXHA2IiII-79" value="Address" style="swimlane;fontStyle=1;align=center;verticalAlign=top;childLayout=stackLayout;horizontal=1;startSize=26;horizontalStack=0;resizeParent=1;resizeParentMax=0;resizeLast=0;collapsible=1;marginBottom=0;whiteSpace=wrap;html=1;" parent="WIyWlLk6GJQsqaUBKTNV-1" vertex="1">
          <mxGeometry x="825" y="498" width="160" height="182" as="geometry" />
        </mxCell>
        <mxCell id="bMznROI8uIrrXHA2IiII-80" value="+ name: string" style="text;strokeColor=none;fillColor=none;align=left;verticalAlign=top;spacingLeft=4;spacingRight=4;overflow=hidden;rotatable=0;points=[[0,0.5],[1,0.5]];portConstraint=eastwest;whiteSpace=wrap;html=1;" parent="bMznROI8uIrrXHA2IiII-79" vertex="1">
          <mxGeometry y="26" width="160" height="26" as="geometry" />
        </mxCell>
        <mxCell id="bMznROI8uIrrXHA2IiII-97" value="+ street: string" style="text;strokeColor=none;fillColor=none;align=left;verticalAlign=top;spacingLeft=4;spacingRight=4;overflow=hidden;rotatable=0;points=[[0,0.5],[1,0.5]];portConstraint=eastwest;whiteSpace=wrap;html=1;" parent="bMznROI8uIrrXHA2IiII-79" vertex="1">
          <mxGeometry y="52" width="160" height="26" as="geometry" />
        </mxCell>
        <mxCell id="bMznROI8uIrrXHA2IiII-99" value="+ city: string" style="text;strokeColor=none;fillColor=none;align=left;verticalAlign=top;spacingLeft=4;spacingRight=4;overflow=hidden;rotatable=0;points=[[0,0.5],[1,0.5]];portConstraint=eastwest;whiteSpace=wrap;html=1;" parent="bMznROI8uIrrXHA2IiII-79" vertex="1">
          <mxGeometry y="78" width="160" height="26" as="geometry" />
        </mxCell>
        <mxCell id="bMznROI8uIrrXHA2IiII-100" value="+ state: string" style="text;strokeColor=none;fillColor=none;align=left;verticalAlign=top;spacingLeft=4;spacingRight=4;overflow=hidden;rotatable=0;points=[[0,0.5],[1,0.5]];portConstraint=eastwest;whiteSpace=wrap;html=1;" parent="bMznROI8uIrrXHA2IiII-79" vertex="1">
          <mxGeometry y="104" width="160" height="26" as="geometry" />
        </mxCell>
        <mxCell id="bMznROI8uIrrXHA2IiII-101" value="+ postalCode: string" style="text;strokeColor=none;fillColor=none;align=left;verticalAlign=top;spacingLeft=4;spacingRight=4;overflow=hidden;rotatable=0;points=[[0,0.5],[1,0.5]];portConstraint=eastwest;whiteSpace=wrap;html=1;" parent="bMznROI8uIrrXHA2IiII-79" vertex="1">
          <mxGeometry y="130" width="160" height="26" as="geometry" />
        </mxCell>
        <mxCell id="bMznROI8uIrrXHA2IiII-102" value="+ country: string" style="text;strokeColor=none;fillColor=none;align=left;verticalAlign=top;spacingLeft=4;spacingRight=4;overflow=hidden;rotatable=0;points=[[0,0.5],[1,0.5]];portConstraint=eastwest;whiteSpace=wrap;html=1;" parent="bMznROI8uIrrXHA2IiII-79" vertex="1">
          <mxGeometry y="156" width="160" height="26" as="geometry" />
        </mxCell>
        <mxCell id="bMznROI8uIrrXHA2IiII-89" value="&lt;span style=&quot;font-weight: normal;&quot;&gt;«Collection»&lt;br style=&quot;border-color: var(--border-color);&quot;&gt;&lt;/span&gt;Customers" style="swimlane;fontStyle=1;align=center;verticalAlign=top;childLayout=stackLayout;horizontal=1;startSize=40;horizontalStack=0;resizeParent=1;resizeParentMax=0;resizeLast=0;collapsible=1;marginBottom=0;whiteSpace=wrap;html=1;" parent="WIyWlLk6GJQsqaUBKTNV-1" vertex="1" collapsed="1">
          <mxGeometry x="850" y="220" width="110" height="40" as="geometry">
            <mxRectangle x="610" y="120" width="160" height="100" as="alternateBounds" />
          </mxGeometry>
        </mxCell>
        <mxCell id="bMznROI8uIrrXHA2IiII-90" value="" style="line;strokeWidth=1;fillColor=none;align=left;verticalAlign=middle;spacingTop=-1;spacingLeft=3;spacingRight=3;rotatable=0;labelPosition=right;points=[];portConstraint=eastwest;strokeColor=inherit;" parent="bMznROI8uIrrXHA2IiII-89" vertex="1">
          <mxGeometry y="40" width="160" height="8" as="geometry" />
        </mxCell>
        <mxCell id="bMznROI8uIrrXHA2IiII-91" value="GET /customers" style="text;strokeColor=none;fillColor=none;align=left;verticalAlign=top;spacingLeft=4;spacingRight=4;overflow=hidden;rotatable=0;points=[[0,0.5],[1,0.5]];portConstraint=eastwest;whiteSpace=wrap;html=1;" parent="bMznROI8uIrrXHA2IiII-89" vertex="1">
          <mxGeometry y="48" width="160" height="26" as="geometry" />
        </mxCell>
        <mxCell id="bMznROI8uIrrXHA2IiII-92" value="POST /customers" style="text;strokeColor=none;fillColor=none;align=left;verticalAlign=top;spacingLeft=4;spacingRight=4;overflow=hidden;rotatable=0;points=[[0,0.5],[1,0.5]];portConstraint=eastwest;whiteSpace=wrap;html=1;" parent="bMznROI8uIrrXHA2IiII-89" vertex="1">
          <mxGeometry y="74" width="160" height="26" as="geometry" />
        </mxCell>
        <mxCell id="bMznROI8uIrrXHA2IiII-93" value="" style="endArrow=open;html=1;endSize=12;startArrow=diamondThin;startSize=14;startFill=1;edgeStyle=orthogonalEdgeStyle;rounded=0;endFill=0;" parent="WIyWlLk6GJQsqaUBKTNV-1" source="bMznROI8uIrrXHA2IiII-89" target="bMznROI8uIrrXHA2IiII-25" edge="1">
          <mxGeometry x="-0.2102" y="39" relative="1" as="geometry">
            <mxPoint x="951" y="168" as="sourcePoint" />
            <mxPoint x="949" y="323" as="targetPoint" />
            <Array as="points">
              <mxPoint x="900" y="290" />
              <mxPoint x="900" y="290" />
            </Array>
            <mxPoint as="offset" />
          </mxGeometry>
        </mxCell>
        <mxCell id="bMznROI8uIrrXHA2IiII-110" value="&lt;span style=&quot;font-weight: normal;&quot;&gt;«Collection»&lt;br style=&quot;border-color: var(--border-color);&quot;&gt;&lt;/span&gt;Products" style="swimlane;fontStyle=1;align=center;verticalAlign=top;childLayout=stackLayout;horizontal=1;startSize=40;horizontalStack=0;resizeParent=1;resizeParentMax=0;resizeLast=0;collapsible=1;marginBottom=0;whiteSpace=wrap;html=1;" parent="WIyWlLk6GJQsqaUBKTNV-1" vertex="1" collapsed="1">
          <mxGeometry x="395" y="215" width="110" height="40" as="geometry">
            <mxRectangle x="60" y="120" width="160" height="100" as="alternateBounds" />
          </mxGeometry>
        </mxCell>
        <mxCell id="bMznROI8uIrrXHA2IiII-111" value="" style="line;strokeWidth=1;fillColor=none;align=left;verticalAlign=middle;spacingTop=-1;spacingLeft=3;spacingRight=3;rotatable=0;labelPosition=right;points=[];portConstraint=eastwest;strokeColor=inherit;" parent="bMznROI8uIrrXHA2IiII-110" vertex="1">
          <mxGeometry y="40" width="160" height="8" as="geometry" />
        </mxCell>
        <mxCell id="bMznROI8uIrrXHA2IiII-112" value="GET /products" style="text;strokeColor=none;fillColor=none;align=left;verticalAlign=top;spacingLeft=4;spacingRight=4;overflow=hidden;rotatable=0;points=[[0,0.5],[1,0.5]];portConstraint=eastwest;whiteSpace=wrap;html=1;" parent="bMznROI8uIrrXHA2IiII-110" vertex="1">
          <mxGeometry y="48" width="160" height="26" as="geometry" />
        </mxCell>
        <mxCell id="bMznROI8uIrrXHA2IiII-113" value="POST /products" style="text;strokeColor=none;fillColor=none;align=left;verticalAlign=top;spacingLeft=4;spacingRight=4;overflow=hidden;rotatable=0;points=[[0,0.5],[1,0.5]];portConstraint=eastwest;whiteSpace=wrap;html=1;" parent="bMznROI8uIrrXHA2IiII-110" vertex="1">
          <mxGeometry y="74" width="160" height="26" as="geometry" />
        </mxCell>
        <mxCell id="bMznROI8uIrrXHA2IiII-114" value="&lt;span style=&quot;font-weight: normal;&quot;&gt;«Resource»&lt;br style=&quot;border-color: var(--border-color);&quot;&gt;&lt;/span&gt;Product" style="swimlane;fontStyle=1;align=center;verticalAlign=top;childLayout=stackLayout;horizontal=1;startSize=42;horizontalStack=0;resizeParent=1;resizeParentMax=0;resizeLast=0;collapsible=1;marginBottom=0;whiteSpace=wrap;html=1;" parent="WIyWlLk6GJQsqaUBKTNV-1" vertex="1">
          <mxGeometry x="370" y="303" width="160" height="206" as="geometry" />
        </mxCell>
        <mxCell id="bMznROI8uIrrXHA2IiII-115" value="+ SKU: string" style="text;strokeColor=none;fillColor=none;align=left;verticalAlign=top;spacingLeft=4;spacingRight=4;overflow=hidden;rotatable=0;points=[[0,0.5],[1,0.5]];portConstraint=eastwest;whiteSpace=wrap;html=1;" parent="bMznROI8uIrrXHA2IiII-114" vertex="1">
          <mxGeometry y="42" width="160" height="26" as="geometry" />
        </mxCell>
        <mxCell id="bMznROI8uIrrXHA2IiII-116" value="+ name: string" style="text;strokeColor=none;fillColor=none;align=left;verticalAlign=top;spacingLeft=4;spacingRight=4;overflow=hidden;rotatable=0;points=[[0,0.5],[1,0.5]];portConstraint=eastwest;whiteSpace=wrap;html=1;" parent="bMznROI8uIrrXHA2IiII-114" vertex="1">
          <mxGeometry y="68" width="160" height="26" as="geometry" />
        </mxCell>
        <mxCell id="bMznROI8uIrrXHA2IiII-152" value="+ description: HTML" style="text;strokeColor=none;fillColor=none;align=left;verticalAlign=top;spacingLeft=4;spacingRight=4;overflow=hidden;rotatable=0;points=[[0,0.5],[1,0.5]];portConstraint=eastwest;whiteSpace=wrap;html=1;" parent="bMznROI8uIrrXHA2IiII-114" vertex="1">
          <mxGeometry y="94" width="160" height="26" as="geometry" />
        </mxCell>
        <mxCell id="bMznROI8uIrrXHA2IiII-153" value="+ image: URL" style="text;strokeColor=none;fillColor=none;align=left;verticalAlign=top;spacingLeft=4;spacingRight=4;overflow=hidden;rotatable=0;points=[[0,0.5],[1,0.5]];portConstraint=eastwest;whiteSpace=wrap;html=1;" parent="bMznROI8uIrrXHA2IiII-114" vertex="1">
          <mxGeometry y="120" width="160" height="26" as="geometry" />
        </mxCell>
        <mxCell id="bMznROI8uIrrXHA2IiII-117" value="" style="line;strokeWidth=1;fillColor=none;align=left;verticalAlign=middle;spacingTop=-1;spacingLeft=3;spacingRight=3;rotatable=0;labelPosition=right;points=[];portConstraint=eastwest;strokeColor=inherit;" parent="bMznROI8uIrrXHA2IiII-114" vertex="1">
          <mxGeometry y="146" width="160" height="8" as="geometry" />
        </mxCell>
        <mxCell id="bMznROI8uIrrXHA2IiII-118" value="GET products/:id" style="text;strokeColor=none;fillColor=none;align=left;verticalAlign=top;spacingLeft=4;spacingRight=4;overflow=hidden;rotatable=0;points=[[0,0.5],[1,0.5]];portConstraint=eastwest;whiteSpace=wrap;html=1;" parent="bMznROI8uIrrXHA2IiII-114" vertex="1">
          <mxGeometry y="154" width="160" height="26" as="geometry" />
        </mxCell>
        <mxCell id="bMznROI8uIrrXHA2IiII-150" value="GET products/:id/pricelist" style="text;strokeColor=none;fillColor=none;align=left;verticalAlign=top;spacingLeft=4;spacingRight=4;overflow=hidden;rotatable=0;points=[[0,0.5],[1,0.5]];portConstraint=eastwest;whiteSpace=wrap;html=1;" parent="bMznROI8uIrrXHA2IiII-114" vertex="1">
          <mxGeometry y="180" width="160" height="26" as="geometry" />
        </mxCell>
        <mxCell id="bMznROI8uIrrXHA2IiII-120" value="" style="endArrow=openThin;html=1;endSize=12;startArrow=diamondThin;startSize=14;startFill=1;edgeStyle=orthogonalEdgeStyle;rounded=0;endFill=0;" parent="WIyWlLk6GJQsqaUBKTNV-1" source="bMznROI8uIrrXHA2IiII-110" target="bMznROI8uIrrXHA2IiII-114" edge="1">
          <mxGeometry x="-0.1466" y="58" relative="1" as="geometry">
            <mxPoint x="451.68" y="148" as="sourcePoint" />
            <mxPoint x="449.68" y="303" as="targetPoint" />
            <Array as="points" />
            <mxPoint as="offset" />
          </mxGeometry>
        </mxCell>
        <mxCell id="bMznROI8uIrrXHA2IiII-122" value="" style="endArrow=none;html=1;edgeStyle=orthogonalEdgeStyle;rounded=0;startArrow=open;startFill=0;" parent="WIyWlLk6GJQsqaUBKTNV-1" source="bMznROI8uIrrXHA2IiII-114" target="bMznROI8uIrrXHA2IiII-41" edge="1">
          <mxGeometry relative="1" as="geometry">
            <mxPoint x="270" y="440" as="sourcePoint" />
            <mxPoint x="520" y="580" as="targetPoint" />
            <Array as="points">
              <mxPoint x="440" y="580" />
            </Array>
          </mxGeometry>
        </mxCell>
        <mxCell id="bMznROI8uIrrXHA2IiII-123" value="product" style="edgeLabel;resizable=0;html=1;align=left;verticalAlign=bottom;" parent="bMznROI8uIrrXHA2IiII-122" connectable="0" vertex="1">
          <mxGeometry x="-1" relative="1" as="geometry">
            <mxPoint x="5" y="18" as="offset" />
          </mxGeometry>
        </mxCell>
        <mxCell id="bMznROI8uIrrXHA2IiII-124" value="purchase" style="edgeLabel;resizable=0;html=1;align=right;verticalAlign=bottom;" parent="bMznROI8uIrrXHA2IiII-122" connectable="0" vertex="1">
          <mxGeometry x="1" relative="1" as="geometry">
            <mxPoint x="-4" y="20" as="offset" />
          </mxGeometry>
        </mxCell>
        <mxCell id="bMznROI8uIrrXHA2IiII-144" value="" style="endArrow=open;html=1;endSize=12;startArrow=diamondThin;startSize=14;startFill=1;edgeStyle=orthogonalEdgeStyle;rounded=0;" parent="WIyWlLk6GJQsqaUBKTNV-1" source="bMznROI8uIrrXHA2IiII-25" target="bMznROI8uIrrXHA2IiII-79" edge="1">
          <mxGeometry relative="1" as="geometry">
            <mxPoint x="900" y="490" as="sourcePoint" />
            <mxPoint x="1060" y="490" as="targetPoint" />
            <Array as="points">
              <mxPoint x="1010" y="591" />
            </Array>
          </mxGeometry>
        </mxCell>
        <mxCell id="bMznROI8uIrrXHA2IiII-157" value="VendorPrice" style="swimlane;fontStyle=1;align=center;verticalAlign=top;childLayout=stackLayout;horizontal=1;startSize=30;horizontalStack=0;resizeParent=1;resizeParentMax=0;resizeLast=0;collapsible=1;marginBottom=0;whiteSpace=wrap;html=1;" parent="WIyWlLk6GJQsqaUBKTNV-1" vertex="1">
          <mxGeometry x="130" y="509" width="160" height="108" as="geometry" />
        </mxCell>
        <mxCell id="bMznROI8uIrrXHA2IiII-158" value="+ quantity: int" style="text;strokeColor=#82b366;fillColor=#d5e8d4;align=left;verticalAlign=top;spacingLeft=4;spacingRight=4;overflow=hidden;rotatable=0;points=[[0,0.5],[1,0.5]];portConstraint=eastwest;whiteSpace=wrap;html=1;" parent="bMznROI8uIrrXHA2IiII-157" vertex="1">
          <mxGeometry y="30" width="160" height="26" as="geometry" />
        </mxCell>
        <mxCell id="bMznROI8uIrrXHA2IiII-159" value="+ unitPrice: ###.##" style="text;strokeColor=#82b366;fillColor=#d5e8d4;align=left;verticalAlign=top;spacingLeft=4;spacingRight=4;overflow=hidden;rotatable=0;points=[[0,0.5],[1,0.5]];portConstraint=eastwest;whiteSpace=wrap;html=1;" parent="bMznROI8uIrrXHA2IiII-157" vertex="1">
          <mxGeometry y="56" width="160" height="26" as="geometry" />
        </mxCell>
        <mxCell id="bMznROI8uIrrXHA2IiII-160" value="+ discount: 0..100%" style="text;strokeColor=#82b366;fillColor=#d5e8d4;align=left;verticalAlign=top;spacingLeft=4;spacingRight=4;overflow=hidden;rotatable=0;points=[[0,0.5],[1,0.5]];portConstraint=eastwest;whiteSpace=wrap;html=1;" parent="bMznROI8uIrrXHA2IiII-157" vertex="1">
          <mxGeometry y="82" width="160" height="26" as="geometry" />
        </mxCell>
        <mxCell id="bMznROI8uIrrXHA2IiII-161" value="" style="endArrow=none;html=1;edgeStyle=orthogonalEdgeStyle;rounded=0;startArrow=open;startFill=0;" parent="WIyWlLk6GJQsqaUBKTNV-1" source="bMznROI8uIrrXHA2IiII-114" target="bMznROI8uIrrXHA2IiII-157" edge="1">
          <mxGeometry relative="1" as="geometry">
            <mxPoint x="370" y="524" as="sourcePoint" />
            <mxPoint x="420" y="615" as="targetPoint" />
            <Array as="points">
              <mxPoint x="420" y="580" />
            </Array>
          </mxGeometry>
        </mxCell>
        <mxCell id="bMznROI8uIrrXHA2IiII-162" value="product" style="edgeLabel;resizable=0;html=1;align=left;verticalAlign=bottom;" parent="bMznROI8uIrrXHA2IiII-161" connectable="0" vertex="1">
          <mxGeometry x="-1" relative="1" as="geometry">
            <mxPoint x="-50" y="18" as="offset" />
          </mxGeometry>
        </mxCell>
        <mxCell id="bMznROI8uIrrXHA2IiII-163" value="price" style="edgeLabel;resizable=0;html=1;align=right;verticalAlign=bottom;" parent="bMznROI8uIrrXHA2IiII-161" connectable="0" vertex="1">
          <mxGeometry x="1" relative="1" as="geometry">
            <mxPoint x="30" y="20" as="offset" />
          </mxGeometry>
        </mxCell>
        <mxCell id="bMznROI8uIrrXHA2IiII-165" value="&lt;span style=&quot;font-weight: normal;&quot;&gt;«Collection»&lt;br style=&quot;border-color: var(--border-color);&quot;&gt;&lt;/span&gt;Vendors" style="swimlane;fontStyle=1;align=center;verticalAlign=top;childLayout=stackLayout;horizontal=1;startSize=40;horizontalStack=0;resizeParent=1;resizeParentMax=0;resizeLast=0;collapsible=1;marginBottom=0;whiteSpace=wrap;html=1;" parent="WIyWlLk6GJQsqaUBKTNV-1" vertex="1" collapsed="1">
          <mxGeometry x="160" y="215" width="110" height="40" as="geometry">
            <mxRectangle x="60" y="120" width="160" height="100" as="alternateBounds" />
          </mxGeometry>
        </mxCell>
        <mxCell id="bMznROI8uIrrXHA2IiII-166" value="" style="line;strokeWidth=1;fillColor=none;align=left;verticalAlign=middle;spacingTop=-1;spacingLeft=3;spacingRight=3;rotatable=0;labelPosition=right;points=[];portConstraint=eastwest;strokeColor=inherit;" parent="bMznROI8uIrrXHA2IiII-165" vertex="1">
          <mxGeometry y="40" width="160" height="8" as="geometry" />
        </mxCell>
        <mxCell id="bMznROI8uIrrXHA2IiII-167" value="GET /products" style="text;strokeColor=none;fillColor=none;align=left;verticalAlign=top;spacingLeft=4;spacingRight=4;overflow=hidden;rotatable=0;points=[[0,0.5],[1,0.5]];portConstraint=eastwest;whiteSpace=wrap;html=1;" parent="bMznROI8uIrrXHA2IiII-165" vertex="1">
          <mxGeometry y="48" width="160" height="26" as="geometry" />
        </mxCell>
        <mxCell id="bMznROI8uIrrXHA2IiII-168" value="POST /products" style="text;strokeColor=none;fillColor=none;align=left;verticalAlign=top;spacingLeft=4;spacingRight=4;overflow=hidden;rotatable=0;points=[[0,0.5],[1,0.5]];portConstraint=eastwest;whiteSpace=wrap;html=1;" parent="bMznROI8uIrrXHA2IiII-165" vertex="1">
          <mxGeometry y="74" width="160" height="26" as="geometry" />
        </mxCell>
        <mxCell id="bMznROI8uIrrXHA2IiII-169" value="&lt;span style=&quot;font-weight: normal;&quot;&gt;«Resource»&lt;br style=&quot;border-color: var(--border-color);&quot;&gt;&lt;/span&gt;Vendor" style="swimlane;fontStyle=1;align=center;verticalAlign=top;childLayout=stackLayout;horizontal=1;startSize=40;horizontalStack=0;resizeParent=1;resizeParentMax=0;resizeLast=0;collapsible=1;marginBottom=0;whiteSpace=wrap;html=1;" parent="WIyWlLk6GJQsqaUBKTNV-1" vertex="1">
          <mxGeometry x="130" y="303" width="160" height="126" as="geometry" />
        </mxCell>
        <mxCell id="bMznROI8uIrrXHA2IiII-170" value="+ name: string" style="text;strokeColor=none;fillColor=none;align=left;verticalAlign=top;spacingLeft=4;spacingRight=4;overflow=hidden;rotatable=0;points=[[0,0.5],[1,0.5]];portConstraint=eastwest;whiteSpace=wrap;html=1;" parent="bMznROI8uIrrXHA2IiII-169" vertex="1">
          <mxGeometry y="40" width="160" height="26" as="geometry" />
        </mxCell>
        <mxCell id="bMznROI8uIrrXHA2IiII-171" value="" style="line;strokeWidth=1;fillColor=none;align=left;verticalAlign=middle;spacingTop=-1;spacingLeft=3;spacingRight=3;rotatable=0;labelPosition=right;points=[];portConstraint=eastwest;strokeColor=inherit;" parent="bMznROI8uIrrXHA2IiII-169" vertex="1">
          <mxGeometry y="66" width="160" height="8" as="geometry" />
        </mxCell>
        <mxCell id="bMznROI8uIrrXHA2IiII-172" value="+ GET vendors/:id" style="text;strokeColor=none;fillColor=none;align=left;verticalAlign=top;spacingLeft=4;spacingRight=4;overflow=hidden;rotatable=0;points=[[0,0.5],[1,0.5]];portConstraint=eastwest;whiteSpace=wrap;html=1;" parent="bMznROI8uIrrXHA2IiII-169" vertex="1">
          <mxGeometry y="74" width="160" height="26" as="geometry" />
        </mxCell>
        <mxCell id="bMznROI8uIrrXHA2IiII-173" value="+ GET vendors/:id/pricelist" style="text;strokeColor=none;fillColor=none;align=left;verticalAlign=top;spacingLeft=4;spacingRight=4;overflow=hidden;rotatable=0;points=[[0,0.5],[1,0.5]];portConstraint=eastwest;whiteSpace=wrap;html=1;" parent="bMznROI8uIrrXHA2IiII-169" vertex="1">
          <mxGeometry y="100" width="160" height="26" as="geometry" />
        </mxCell>
        <mxCell id="bMznROI8uIrrXHA2IiII-175" value="sold by" style="endArrow=none;html=1;endSize=12;startArrow=diamondThin;startSize=14;startFill=0;edgeStyle=orthogonalEdgeStyle;rounded=0;endFill=0;" parent="WIyWlLk6GJQsqaUBKTNV-1" source="bMznROI8uIrrXHA2IiII-169" target="bMznROI8uIrrXHA2IiII-114" edge="1">
          <mxGeometry x="-0.0323" y="16" relative="1" as="geometry">
            <mxPoint x="250" y="390" as="sourcePoint" />
            <mxPoint x="340" y="390" as="targetPoint" />
            <Array as="points">
              <mxPoint x="330" y="371" />
              <mxPoint x="330" y="371" />
            </Array>
            <mxPoint x="1" as="offset" />
          </mxGeometry>
        </mxCell>
        <mxCell id="bMznROI8uIrrXHA2IiII-176" value="" style="endArrow=openThin;html=1;endSize=12;startArrow=diamondThin;startSize=14;startFill=1;edgeStyle=orthogonalEdgeStyle;rounded=0;endFill=0;" parent="WIyWlLk6GJQsqaUBKTNV-1" edge="1">
          <mxGeometry x="-0.1466" y="58" relative="1" as="geometry">
            <mxPoint x="210" y="255" as="sourcePoint" />
            <mxPoint x="210" y="303" as="targetPoint" />
            <Array as="points" />
            <mxPoint as="offset" />
          </mxGeometry>
        </mxCell>
        <mxCell id="bMznROI8uIrrXHA2IiII-177" value="" style="endArrow=open;html=1;endSize=12;startArrow=diamondThin;startSize=14;startFill=1;edgeStyle=orthogonalEdgeStyle;rounded=0;" parent="WIyWlLk6GJQsqaUBKTNV-1" source="bMznROI8uIrrXHA2IiII-169" target="bMznROI8uIrrXHA2IiII-157" edge="1">
          <mxGeometry relative="1" as="geometry">
            <mxPoint x="225" y="400" as="sourcePoint" />
            <mxPoint x="200" y="529" as="targetPoint" />
            <Array as="points">
              <mxPoint x="210" y="480" />
              <mxPoint x="210" y="480" />
            </Array>
          </mxGeometry>
        </mxCell>
        <mxCell id="bMznROI8uIrrXHA2IiII-179" value="&lt;span style=&quot;font-weight: normal;&quot;&gt;«Resource»&lt;br style=&quot;border-color: var(--border-color);&quot;&gt;&lt;/span&gt;Order" style="swimlane;fontStyle=1;align=center;verticalAlign=top;childLayout=stackLayout;horizontal=1;startSize=42;horizontalStack=0;resizeParent=1;resizeParentMax=0;resizeLast=0;collapsible=1;marginBottom=0;whiteSpace=wrap;html=1;" parent="WIyWlLk6GJQsqaUBKTNV-1" vertex="1">
          <mxGeometry x="175" y="787.5" width="160" height="146" as="geometry" />
        </mxCell>
        <mxCell id="bMznROI8uIrrXHA2IiII-180" value="+ totalValue: ###.##" style="text;strokeColor=none;fillColor=none;align=left;verticalAlign=top;spacingLeft=4;spacingRight=4;overflow=hidden;rotatable=0;points=[[0,0.5],[1,0.5]];portConstraint=eastwest;whiteSpace=wrap;html=1;" parent="bMznROI8uIrrXHA2IiII-179" vertex="1">
          <mxGeometry y="42" width="160" height="26" as="geometry" />
        </mxCell>
        <mxCell id="bMznROI8uIrrXHA2IiII-181" value="+ currency: string" style="text;strokeColor=none;fillColor=none;align=left;verticalAlign=top;spacingLeft=4;spacingRight=4;overflow=hidden;rotatable=0;points=[[0,0.5],[1,0.5]];portConstraint=eastwest;whiteSpace=wrap;html=1;" parent="bMznROI8uIrrXHA2IiII-179" vertex="1">
          <mxGeometry y="68" width="160" height="26" as="geometry" />
        </mxCell>
        <mxCell id="bMznROI8uIrrXHA2IiII-182" value="+ billingAddress: Address" style="text;align=left;verticalAlign=top;spacingLeft=4;spacingRight=4;overflow=hidden;rotatable=0;points=[[0,0.5],[1,0.5]];portConstraint=eastwest;whiteSpace=wrap;html=1;" parent="bMznROI8uIrrXHA2IiII-179" vertex="1">
          <mxGeometry y="94" width="160" height="26" as="geometry" />
        </mxCell>
        <mxCell id="bMznROI8uIrrXHA2IiII-183" value="+ shippingAddress: Address" style="text;align=left;verticalAlign=top;spacingLeft=4;spacingRight=4;overflow=hidden;rotatable=0;points=[[0,0.5],[1,0.5]];portConstraint=eastwest;whiteSpace=wrap;html=1;" parent="bMznROI8uIrrXHA2IiII-179" vertex="1">
          <mxGeometry y="120" width="160" height="26" as="geometry" />
        </mxCell>
        <mxCell id="bMznROI8uIrrXHA2IiII-187" value="&lt;span style=&quot;font-weight: normal;&quot;&gt;«Resource»&lt;br style=&quot;border-color: var(--border-color);&quot;&gt;&lt;/span&gt;Customer" style="swimlane;fontStyle=1;align=center;verticalAlign=top;childLayout=stackLayout;horizontal=1;startSize=40;horizontalStack=0;resizeParent=1;resizeParentMax=0;resizeLast=0;collapsible=1;marginBottom=0;whiteSpace=wrap;html=1;" parent="WIyWlLk6GJQsqaUBKTNV-1" vertex="1" collapsed="1">
          <mxGeometry x="365" y="787.5" width="110" height="40" as="geometry">
            <mxRectangle x="790" y="995" width="210" height="152" as="alternateBounds" />
          </mxGeometry>
        </mxCell>
        <mxCell id="bMznROI8uIrrXHA2IiII-188" value="+ name: string" style="text;strokeColor=none;fillColor=none;align=left;verticalAlign=top;spacingLeft=4;spacingRight=4;overflow=hidden;rotatable=0;points=[[0,0.5],[1,0.5]];portConstraint=eastwest;whiteSpace=wrap;html=1;" parent="bMznROI8uIrrXHA2IiII-187" vertex="1">
          <mxGeometry y="40" width="210" height="26" as="geometry" />
        </mxCell>
        <mxCell id="bMznROI8uIrrXHA2IiII-189" value="" style="line;strokeWidth=1;fillColor=none;align=left;verticalAlign=middle;spacingTop=-1;spacingLeft=3;spacingRight=3;rotatable=0;labelPosition=right;points=[];portConstraint=eastwest;strokeColor=inherit;" parent="bMznROI8uIrrXHA2IiII-187" vertex="1">
          <mxGeometry y="66" width="210" height="8" as="geometry" />
        </mxCell>
        <mxCell id="bMznROI8uIrrXHA2IiII-190" value="+ GET customers/:id" style="text;strokeColor=none;fillColor=none;align=left;verticalAlign=top;spacingLeft=4;spacingRight=4;overflow=hidden;rotatable=0;points=[[0,0.5],[1,0.5]];portConstraint=eastwest;whiteSpace=wrap;html=1;" parent="bMznROI8uIrrXHA2IiII-187" vertex="1">
          <mxGeometry y="74" width="210" height="26" as="geometry" />
        </mxCell>
        <mxCell id="bMznROI8uIrrXHA2IiII-191" value="+ GET customers/:id/addresses" style="text;strokeColor=none;fillColor=none;align=left;verticalAlign=top;spacingLeft=4;spacingRight=4;overflow=hidden;rotatable=0;points=[[0,0.5],[1,0.5]];portConstraint=eastwest;whiteSpace=wrap;html=1;" parent="bMznROI8uIrrXHA2IiII-187" vertex="1">
          <mxGeometry y="100" width="210" height="26" as="geometry" />
        </mxCell>
        <mxCell id="bMznROI8uIrrXHA2IiII-192" value="+ GET customers/:id/orders" style="text;strokeColor=none;fillColor=none;align=left;verticalAlign=top;spacingLeft=4;spacingRight=4;overflow=hidden;rotatable=0;points=[[0,0.5],[1,0.5]];portConstraint=eastwest;whiteSpace=wrap;html=1;" parent="bMznROI8uIrrXHA2IiII-187" vertex="1">
          <mxGeometry y="126" width="210" height="26" as="geometry" />
        </mxCell>
        <mxCell id="bMznROI8uIrrXHA2IiII-193" value="purchased by" style="endArrow=diamondThin;html=1;endSize=12;startArrow=none;startSize=14;startFill=0;edgeStyle=orthogonalEdgeStyle;rounded=0;endFill=0;" parent="WIyWlLk6GJQsqaUBKTNV-1" source="bMznROI8uIrrXHA2IiII-179" target="bMznROI8uIrrXHA2IiII-187" edge="1">
          <mxGeometry x="-0.3245" y="-14" relative="1" as="geometry">
            <mxPoint x="295" y="819.5" as="sourcePoint" />
            <mxPoint x="625" y="819.5" as="targetPoint" />
            <Array as="points">
              <mxPoint x="385" y="890.5" />
              <mxPoint x="385" y="890.5" />
            </Array>
            <mxPoint as="offset" />
          </mxGeometry>
        </mxCell>
        <mxCell id="bMznROI8uIrrXHA2IiII-194" value="LineItem" style="swimlane;fontStyle=1;align=center;verticalAlign=top;childLayout=stackLayout;horizontal=1;startSize=30;horizontalStack=0;resizeParent=1;resizeParentMax=0;resizeLast=0;collapsible=1;marginBottom=0;whiteSpace=wrap;html=1;" parent="WIyWlLk6GJQsqaUBKTNV-1" vertex="1">
          <mxGeometry x="95" y="1039.5" width="160" height="134" as="geometry" />
        </mxCell>
        <mxCell id="bMznROI8uIrrXHA2IiII-195" value="+ quantity: int" style="text;align=left;verticalAlign=top;spacingLeft=4;spacingRight=4;overflow=hidden;rotatable=0;points=[[0,0.5],[1,0.5]];portConstraint=eastwest;whiteSpace=wrap;html=1;" parent="bMznROI8uIrrXHA2IiII-194" vertex="1">
          <mxGeometry y="30" width="160" height="26" as="geometry" />
        </mxCell>
        <mxCell id="bMznROI8uIrrXHA2IiII-196" value="+ unitPrice: ###.##" style="text;align=left;verticalAlign=top;spacingLeft=4;spacingRight=4;overflow=hidden;rotatable=0;points=[[0,0.5],[1,0.5]];portConstraint=eastwest;whiteSpace=wrap;html=1;" parent="bMznROI8uIrrXHA2IiII-194" vertex="1">
          <mxGeometry y="56" width="160" height="26" as="geometry" />
        </mxCell>
        <mxCell id="bMznROI8uIrrXHA2IiII-197" value="+ discount: 0..100%" style="text;align=left;verticalAlign=top;spacingLeft=4;spacingRight=4;overflow=hidden;rotatable=0;points=[[0,0.5],[1,0.5]];portConstraint=eastwest;whiteSpace=wrap;html=1;" parent="bMznROI8uIrrXHA2IiII-194" vertex="1">
          <mxGeometry y="82" width="160" height="26" as="geometry" />
        </mxCell>
        <mxCell id="bMznROI8uIrrXHA2IiII-198" value="+ vendor: VendorID" style="text;strokeColor=none;fillColor=none;align=left;verticalAlign=top;spacingLeft=4;spacingRight=4;overflow=hidden;rotatable=0;points=[[0,0.5],[1,0.5]];portConstraint=eastwest;whiteSpace=wrap;html=1;" parent="bMznROI8uIrrXHA2IiII-194" vertex="1">
          <mxGeometry y="108" width="160" height="26" as="geometry" />
        </mxCell>
        <mxCell id="bMznROI8uIrrXHA2IiII-199" value="" style="endArrow=open;html=1;endSize=12;startArrow=diamondThin;startSize=14;startFill=1;edgeStyle=orthogonalEdgeStyle;rounded=0;endFill=0;" parent="WIyWlLk6GJQsqaUBKTNV-1" source="bMznROI8uIrrXHA2IiII-179" target="bMznROI8uIrrXHA2IiII-194" edge="1">
          <mxGeometry x="0.2954" y="24" relative="1" as="geometry">
            <mxPoint x="185" y="925.5" as="sourcePoint" />
            <mxPoint x="185" y="1109.5" as="targetPoint" />
            <Array as="points">
              <mxPoint x="285" y="1084.5" />
            </Array>
            <mxPoint x="-4" y="-13" as="offset" />
          </mxGeometry>
        </mxCell>
        <mxCell id="bMznROI8uIrrXHA2IiII-205" value="Address" style="swimlane;fontStyle=1;align=center;verticalAlign=top;childLayout=stackLayout;horizontal=1;startSize=26;horizontalStack=0;resizeParent=1;resizeParentMax=0;resizeLast=0;collapsible=1;marginBottom=0;whiteSpace=wrap;html=1;" parent="WIyWlLk6GJQsqaUBKTNV-1" vertex="1">
          <mxGeometry x="345" y="994.5" width="160" height="182" as="geometry" />
        </mxCell>
        <mxCell id="bMznROI8uIrrXHA2IiII-206" value="+ name: string" style="text;strokeColor=none;fillColor=none;align=left;verticalAlign=top;spacingLeft=4;spacingRight=4;overflow=hidden;rotatable=0;points=[[0,0.5],[1,0.5]];portConstraint=eastwest;whiteSpace=wrap;html=1;" parent="bMznROI8uIrrXHA2IiII-205" vertex="1">
          <mxGeometry y="26" width="160" height="26" as="geometry" />
        </mxCell>
        <mxCell id="bMznROI8uIrrXHA2IiII-207" value="+ street: string" style="text;strokeColor=none;fillColor=none;align=left;verticalAlign=top;spacingLeft=4;spacingRight=4;overflow=hidden;rotatable=0;points=[[0,0.5],[1,0.5]];portConstraint=eastwest;whiteSpace=wrap;html=1;" parent="bMznROI8uIrrXHA2IiII-205" vertex="1">
          <mxGeometry y="52" width="160" height="26" as="geometry" />
        </mxCell>
        <mxCell id="bMznROI8uIrrXHA2IiII-208" value="+ city: string" style="text;strokeColor=none;fillColor=none;align=left;verticalAlign=top;spacingLeft=4;spacingRight=4;overflow=hidden;rotatable=0;points=[[0,0.5],[1,0.5]];portConstraint=eastwest;whiteSpace=wrap;html=1;" parent="bMznROI8uIrrXHA2IiII-205" vertex="1">
          <mxGeometry y="78" width="160" height="26" as="geometry" />
        </mxCell>
        <mxCell id="bMznROI8uIrrXHA2IiII-209" value="+ state: string" style="text;strokeColor=none;fillColor=none;align=left;verticalAlign=top;spacingLeft=4;spacingRight=4;overflow=hidden;rotatable=0;points=[[0,0.5],[1,0.5]];portConstraint=eastwest;whiteSpace=wrap;html=1;" parent="bMznROI8uIrrXHA2IiII-205" vertex="1">
          <mxGeometry y="104" width="160" height="26" as="geometry" />
        </mxCell>
        <mxCell id="bMznROI8uIrrXHA2IiII-210" value="+ postalCode: string" style="text;strokeColor=none;fillColor=none;align=left;verticalAlign=top;spacingLeft=4;spacingRight=4;overflow=hidden;rotatable=0;points=[[0,0.5],[1,0.5]];portConstraint=eastwest;whiteSpace=wrap;html=1;" parent="bMznROI8uIrrXHA2IiII-205" vertex="1">
          <mxGeometry y="130" width="160" height="26" as="geometry" />
        </mxCell>
        <mxCell id="bMznROI8uIrrXHA2IiII-211" value="+ country: string" style="text;strokeColor=none;fillColor=none;align=left;verticalAlign=top;spacingLeft=4;spacingRight=4;overflow=hidden;rotatable=0;points=[[0,0.5],[1,0.5]];portConstraint=eastwest;whiteSpace=wrap;html=1;" parent="bMznROI8uIrrXHA2IiII-205" vertex="1">
          <mxGeometry y="156" width="160" height="26" as="geometry" />
        </mxCell>
        <mxCell id="bMznROI8uIrrXHA2IiII-221" value="&lt;span style=&quot;font-weight: normal;&quot;&gt;«Resource»&lt;br style=&quot;border-color: var(--border-color);&quot;&gt;&lt;/span&gt;Product" style="swimlane;fontStyle=1;align=center;verticalAlign=top;childLayout=stackLayout;horizontal=1;startSize=42;horizontalStack=0;resizeParent=1;resizeParentMax=0;resizeLast=0;collapsible=1;marginBottom=0;whiteSpace=wrap;html=1;" parent="WIyWlLk6GJQsqaUBKTNV-1" vertex="1" collapsed="1">
          <mxGeometry x="95" y="964.5" width="110" height="42" as="geometry">
            <mxRectangle x="340" y="988" width="160" height="206" as="alternateBounds" />
          </mxGeometry>
        </mxCell>
        <mxCell id="bMznROI8uIrrXHA2IiII-222" value="+ SKU: string" style="text;strokeColor=none;fillColor=none;align=left;verticalAlign=top;spacingLeft=4;spacingRight=4;overflow=hidden;rotatable=0;points=[[0,0.5],[1,0.5]];portConstraint=eastwest;whiteSpace=wrap;html=1;" parent="bMznROI8uIrrXHA2IiII-221" vertex="1">
          <mxGeometry y="42" width="160" height="26" as="geometry" />
        </mxCell>
        <mxCell id="bMznROI8uIrrXHA2IiII-223" value="+ name: string" style="text;strokeColor=none;fillColor=none;align=left;verticalAlign=top;spacingLeft=4;spacingRight=4;overflow=hidden;rotatable=0;points=[[0,0.5],[1,0.5]];portConstraint=eastwest;whiteSpace=wrap;html=1;" parent="bMznROI8uIrrXHA2IiII-221" vertex="1">
          <mxGeometry y="68" width="160" height="26" as="geometry" />
        </mxCell>
        <mxCell id="bMznROI8uIrrXHA2IiII-224" value="+ description: HTML" style="text;strokeColor=none;fillColor=none;align=left;verticalAlign=top;spacingLeft=4;spacingRight=4;overflow=hidden;rotatable=0;points=[[0,0.5],[1,0.5]];portConstraint=eastwest;whiteSpace=wrap;html=1;" parent="bMznROI8uIrrXHA2IiII-221" vertex="1">
          <mxGeometry y="94" width="160" height="26" as="geometry" />
        </mxCell>
        <mxCell id="bMznROI8uIrrXHA2IiII-225" value="+ image: URL" style="text;strokeColor=none;fillColor=none;align=left;verticalAlign=top;spacingLeft=4;spacingRight=4;overflow=hidden;rotatable=0;points=[[0,0.5],[1,0.5]];portConstraint=eastwest;whiteSpace=wrap;html=1;" parent="bMznROI8uIrrXHA2IiII-221" vertex="1">
          <mxGeometry y="120" width="160" height="26" as="geometry" />
        </mxCell>
        <mxCell id="bMznROI8uIrrXHA2IiII-226" value="" style="line;strokeWidth=1;fillColor=none;align=left;verticalAlign=middle;spacingTop=-1;spacingLeft=3;spacingRight=3;rotatable=0;labelPosition=right;points=[];portConstraint=eastwest;strokeColor=inherit;" parent="bMznROI8uIrrXHA2IiII-221" vertex="1">
          <mxGeometry y="146" width="160" height="8" as="geometry" />
        </mxCell>
        <mxCell id="bMznROI8uIrrXHA2IiII-227" value="GET products/:id" style="text;strokeColor=none;fillColor=none;align=left;verticalAlign=top;spacingLeft=4;spacingRight=4;overflow=hidden;rotatable=0;points=[[0,0.5],[1,0.5]];portConstraint=eastwest;whiteSpace=wrap;html=1;" parent="bMznROI8uIrrXHA2IiII-221" vertex="1">
          <mxGeometry y="154" width="160" height="26" as="geometry" />
        </mxCell>
        <mxCell id="bMznROI8uIrrXHA2IiII-228" value="GET products/:id/pricelist" style="text;strokeColor=none;fillColor=none;align=left;verticalAlign=top;spacingLeft=4;spacingRight=4;overflow=hidden;rotatable=0;points=[[0,0.5],[1,0.5]];portConstraint=eastwest;whiteSpace=wrap;html=1;" parent="bMznROI8uIrrXHA2IiII-221" vertex="1">
          <mxGeometry y="180" width="160" height="26" as="geometry" />
        </mxCell>
        <mxCell id="bMznROI8uIrrXHA2IiII-230" value="" style="endArrow=none;html=1;edgeStyle=orthogonalEdgeStyle;rounded=0;startArrow=open;startFill=0;" parent="WIyWlLk6GJQsqaUBKTNV-1" source="bMznROI8uIrrXHA2IiII-221" target="bMznROI8uIrrXHA2IiII-194" edge="1">
          <mxGeometry relative="1" as="geometry">
            <mxPoint x="-125" y="919.5" as="sourcePoint" />
            <mxPoint x="125" y="1059.5" as="targetPoint" />
            <Array as="points">
              <mxPoint x="235" y="985.5" />
            </Array>
          </mxGeometry>
        </mxCell>
        <mxCell id="bMznROI8uIrrXHA2IiII-231" value="product" style="edgeLabel;resizable=0;html=1;align=left;verticalAlign=bottom;" parent="bMznROI8uIrrXHA2IiII-230" connectable="0" vertex="1">
          <mxGeometry x="-1" relative="1" as="geometry">
            <mxPoint x="5" y="-1" as="offset" />
          </mxGeometry>
        </mxCell>
        <mxCell id="bMznROI8uIrrXHA2IiII-232" value="purchase" style="edgeLabel;resizable=0;html=1;align=right;verticalAlign=bottom;" parent="bMznROI8uIrrXHA2IiII-230" connectable="0" vertex="1">
          <mxGeometry x="1" relative="1" as="geometry">
            <mxPoint x="-4" y="-5" as="offset" />
          </mxGeometry>
        </mxCell>
        <mxCell id="bMznROI8uIrrXHA2IiII-233" value="" style="endArrow=open;html=1;endSize=12;startArrow=diamondThin;startSize=14;startFill=1;edgeStyle=orthogonalEdgeStyle;rounded=0;" parent="WIyWlLk6GJQsqaUBKTNV-1" source="bMznROI8uIrrXHA2IiII-187" target="bMznROI8uIrrXHA2IiII-205" edge="1">
          <mxGeometry relative="1" as="geometry">
            <mxPoint x="505" y="969.5" as="sourcePoint" />
            <mxPoint x="665" y="969.5" as="targetPoint" />
            <Array as="points">
              <mxPoint x="445" y="884.5" />
              <mxPoint x="445" y="884.5" />
            </Array>
          </mxGeometry>
        </mxCell>
        <mxCell id="XvRKIC91kqcAMC9PbCzt-0" value="&lt;span style=&quot;font-weight: normal;&quot;&gt;«Resource»&lt;br style=&quot;border-color: var(--border-color);&quot;&gt;&lt;/span&gt;Order" style="swimlane;fontStyle=1;align=center;verticalAlign=top;childLayout=stackLayout;horizontal=1;startSize=42;horizontalStack=0;resizeParent=1;resizeParentMax=0;resizeLast=0;collapsible=1;marginBottom=0;whiteSpace=wrap;html=1;" vertex="1" collapsed="1" parent="WIyWlLk6GJQsqaUBKTNV-1">
          <mxGeometry x="130" y="1310" width="110" height="42" as="geometry">
            <mxRectangle x="580" y="1160" width="160" height="206" as="alternateBounds" />
          </mxGeometry>
        </mxCell>
        <mxCell id="XvRKIC91kqcAMC9PbCzt-1" value="+ totalValue: ###.##" style="text;strokeColor=none;fillColor=none;align=left;verticalAlign=top;spacingLeft=4;spacingRight=4;overflow=hidden;rotatable=0;points=[[0,0.5],[1,0.5]];portConstraint=eastwest;whiteSpace=wrap;html=1;" vertex="1" parent="XvRKIC91kqcAMC9PbCzt-0">
          <mxGeometry y="42" width="160" height="26" as="geometry" />
        </mxCell>
        <mxCell id="XvRKIC91kqcAMC9PbCzt-2" value="+ currency: string" style="text;strokeColor=none;fillColor=none;align=left;verticalAlign=top;spacingLeft=4;spacingRight=4;overflow=hidden;rotatable=0;points=[[0,0.5],[1,0.5]];portConstraint=eastwest;whiteSpace=wrap;html=1;" vertex="1" parent="XvRKIC91kqcAMC9PbCzt-0">
          <mxGeometry y="68" width="160" height="26" as="geometry" />
        </mxCell>
        <mxCell id="XvRKIC91kqcAMC9PbCzt-3" value="+ billingAddress: Address" style="text;strokeColor=#d6b656;fillColor=#fff2cc;align=left;verticalAlign=top;spacingLeft=4;spacingRight=4;overflow=hidden;rotatable=0;points=[[0,0.5],[1,0.5]];portConstraint=eastwest;whiteSpace=wrap;html=1;" vertex="1" parent="XvRKIC91kqcAMC9PbCzt-0">
          <mxGeometry y="94" width="160" height="26" as="geometry" />
        </mxCell>
        <mxCell id="XvRKIC91kqcAMC9PbCzt-4" value="+ shippingAddress: Address" style="text;strokeColor=#d6b656;fillColor=#fff2cc;align=left;verticalAlign=top;spacingLeft=4;spacingRight=4;overflow=hidden;rotatable=0;points=[[0,0.5],[1,0.5]];portConstraint=eastwest;whiteSpace=wrap;html=1;" vertex="1" parent="XvRKIC91kqcAMC9PbCzt-0">
          <mxGeometry y="120" width="160" height="26" as="geometry" />
        </mxCell>
        <mxCell id="XvRKIC91kqcAMC9PbCzt-5" value="" style="line;strokeWidth=1;fillColor=none;align=left;verticalAlign=middle;spacingTop=-1;spacingLeft=3;spacingRight=3;rotatable=0;labelPosition=right;points=[];portConstraint=eastwest;strokeColor=inherit;" vertex="1" parent="XvRKIC91kqcAMC9PbCzt-0">
          <mxGeometry y="146" width="160" height="8" as="geometry" />
        </mxCell>
        <mxCell id="XvRKIC91kqcAMC9PbCzt-6" value="GET orders/:id" style="text;strokeColor=none;fillColor=none;align=left;verticalAlign=top;spacingLeft=4;spacingRight=4;overflow=hidden;rotatable=0;points=[[0,0.5],[1,0.5]];portConstraint=eastwest;whiteSpace=wrap;html=1;" vertex="1" parent="XvRKIC91kqcAMC9PbCzt-0">
          <mxGeometry y="154" width="160" height="26" as="geometry" />
        </mxCell>
        <mxCell id="XvRKIC91kqcAMC9PbCzt-7" value="GET orders/:id/lineitems" style="text;strokeColor=none;fillColor=none;align=left;verticalAlign=top;spacingLeft=4;spacingRight=4;overflow=hidden;rotatable=0;points=[[0,0.5],[1,0.5]];portConstraint=eastwest;whiteSpace=wrap;html=1;" vertex="1" parent="XvRKIC91kqcAMC9PbCzt-0">
          <mxGeometry y="180" width="160" height="26" as="geometry" />
        </mxCell>
        <mxCell id="XvRKIC91kqcAMC9PbCzt-8" value="&lt;span style=&quot;font-weight: normal;&quot;&gt;«Resource»&lt;br style=&quot;border-color: var(--border-color);&quot;&gt;&lt;/span&gt;Customer" style="swimlane;fontStyle=1;align=center;verticalAlign=top;childLayout=stackLayout;horizontal=1;startSize=40;horizontalStack=0;resizeParent=1;resizeParentMax=0;resizeLast=0;collapsible=1;marginBottom=0;whiteSpace=wrap;html=1;" vertex="1" parent="WIyWlLk6GJQsqaUBKTNV-1">
          <mxGeometry x="280" y="1310" width="210" height="178" as="geometry" />
        </mxCell>
        <mxCell id="XvRKIC91kqcAMC9PbCzt-9" value="+ name: string" style="text;strokeColor=none;fillColor=none;align=left;verticalAlign=top;spacingLeft=4;spacingRight=4;overflow=hidden;rotatable=0;points=[[0,0.5],[1,0.5]];portConstraint=eastwest;whiteSpace=wrap;html=1;" vertex="1" parent="XvRKIC91kqcAMC9PbCzt-8">
          <mxGeometry y="40" width="210" height="26" as="geometry" />
        </mxCell>
        <mxCell id="XvRKIC91kqcAMC9PbCzt-23" value="+ username: string" style="text;strokeColor=none;fillColor=none;align=left;verticalAlign=top;spacingLeft=4;spacingRight=4;overflow=hidden;rotatable=0;points=[[0,0.5],[1,0.5]];portConstraint=eastwest;whiteSpace=wrap;html=1;" vertex="1" parent="XvRKIC91kqcAMC9PbCzt-8">
          <mxGeometry y="66" width="210" height="26" as="geometry" />
        </mxCell>
        <mxCell id="XvRKIC91kqcAMC9PbCzt-10" value="" style="line;strokeWidth=1;fillColor=none;align=left;verticalAlign=middle;spacingTop=-1;spacingLeft=3;spacingRight=3;rotatable=0;labelPosition=right;points=[];portConstraint=eastwest;strokeColor=inherit;" vertex="1" parent="XvRKIC91kqcAMC9PbCzt-8">
          <mxGeometry y="92" width="210" height="8" as="geometry" />
        </mxCell>
        <mxCell id="XvRKIC91kqcAMC9PbCzt-11" value="+ GET customers/:id" style="text;strokeColor=none;fillColor=none;align=left;verticalAlign=top;spacingLeft=4;spacingRight=4;overflow=hidden;rotatable=0;points=[[0,0.5],[1,0.5]];portConstraint=eastwest;whiteSpace=wrap;html=1;" vertex="1" parent="XvRKIC91kqcAMC9PbCzt-8">
          <mxGeometry y="100" width="210" height="26" as="geometry" />
        </mxCell>
        <mxCell id="XvRKIC91kqcAMC9PbCzt-12" value="+ GET customers/:id/addresses" style="text;strokeColor=none;fillColor=none;align=left;verticalAlign=top;spacingLeft=4;spacingRight=4;overflow=hidden;rotatable=0;points=[[0,0.5],[1,0.5]];portConstraint=eastwest;whiteSpace=wrap;html=1;" vertex="1" parent="XvRKIC91kqcAMC9PbCzt-8">
          <mxGeometry y="126" width="210" height="26" as="geometry" />
        </mxCell>
        <mxCell id="XvRKIC91kqcAMC9PbCzt-13" value="+ GET customers/:id/orders" style="text;strokeColor=none;fillColor=none;align=left;verticalAlign=top;spacingLeft=4;spacingRight=4;overflow=hidden;rotatable=0;points=[[0,0.5],[1,0.5]];portConstraint=eastwest;whiteSpace=wrap;html=1;" vertex="1" parent="XvRKIC91kqcAMC9PbCzt-8">
          <mxGeometry y="152" width="210" height="26" as="geometry" />
        </mxCell>
        <mxCell id="XvRKIC91kqcAMC9PbCzt-14" value="purchased by" style="endArrow=diamondThin;html=1;endSize=12;startArrow=none;startSize=14;startFill=0;edgeStyle=orthogonalEdgeStyle;rounded=0;endFill=0;" edge="1" source="XvRKIC91kqcAMC9PbCzt-0" target="XvRKIC91kqcAMC9PbCzt-8" parent="WIyWlLk6GJQsqaUBKTNV-1">
          <mxGeometry x="0.0604" y="-9" relative="1" as="geometry">
            <mxPoint x="190" y="1364" as="sourcePoint" />
            <mxPoint x="280" y="1411" as="targetPoint" />
            <Array as="points">
              <mxPoint x="190" y="1411" />
            </Array>
            <mxPoint as="offset" />
          </mxGeometry>
        </mxCell>
        <mxCell id="XvRKIC91kqcAMC9PbCzt-15" value="Address" style="swimlane;fontStyle=1;align=center;verticalAlign=top;childLayout=stackLayout;horizontal=1;startSize=26;horizontalStack=0;resizeParent=1;resizeParentMax=0;resizeLast=0;collapsible=1;marginBottom=0;whiteSpace=wrap;html=1;" vertex="1" parent="WIyWlLk6GJQsqaUBKTNV-1">
          <mxGeometry x="100" y="1442" width="160" height="182" as="geometry" />
        </mxCell>
        <mxCell id="XvRKIC91kqcAMC9PbCzt-16" value="+ name: string" style="text;strokeColor=none;fillColor=none;align=left;verticalAlign=top;spacingLeft=4;spacingRight=4;overflow=hidden;rotatable=0;points=[[0,0.5],[1,0.5]];portConstraint=eastwest;whiteSpace=wrap;html=1;" vertex="1" parent="XvRKIC91kqcAMC9PbCzt-15">
          <mxGeometry y="26" width="160" height="26" as="geometry" />
        </mxCell>
        <mxCell id="XvRKIC91kqcAMC9PbCzt-17" value="+ street: string" style="text;strokeColor=none;fillColor=none;align=left;verticalAlign=top;spacingLeft=4;spacingRight=4;overflow=hidden;rotatable=0;points=[[0,0.5],[1,0.5]];portConstraint=eastwest;whiteSpace=wrap;html=1;" vertex="1" parent="XvRKIC91kqcAMC9PbCzt-15">
          <mxGeometry y="52" width="160" height="26" as="geometry" />
        </mxCell>
        <mxCell id="XvRKIC91kqcAMC9PbCzt-18" value="+ city: string" style="text;strokeColor=none;fillColor=none;align=left;verticalAlign=top;spacingLeft=4;spacingRight=4;overflow=hidden;rotatable=0;points=[[0,0.5],[1,0.5]];portConstraint=eastwest;whiteSpace=wrap;html=1;" vertex="1" parent="XvRKIC91kqcAMC9PbCzt-15">
          <mxGeometry y="78" width="160" height="26" as="geometry" />
        </mxCell>
        <mxCell id="XvRKIC91kqcAMC9PbCzt-19" value="+ state: string" style="text;strokeColor=none;fillColor=none;align=left;verticalAlign=top;spacingLeft=4;spacingRight=4;overflow=hidden;rotatable=0;points=[[0,0.5],[1,0.5]];portConstraint=eastwest;whiteSpace=wrap;html=1;" vertex="1" parent="XvRKIC91kqcAMC9PbCzt-15">
          <mxGeometry y="104" width="160" height="26" as="geometry" />
        </mxCell>
        <mxCell id="XvRKIC91kqcAMC9PbCzt-20" value="+ postalCode: string" style="text;strokeColor=none;fillColor=none;align=left;verticalAlign=top;spacingLeft=4;spacingRight=4;overflow=hidden;rotatable=0;points=[[0,0.5],[1,0.5]];portConstraint=eastwest;whiteSpace=wrap;html=1;" vertex="1" parent="XvRKIC91kqcAMC9PbCzt-15">
          <mxGeometry y="130" width="160" height="26" as="geometry" />
        </mxCell>
        <mxCell id="XvRKIC91kqcAMC9PbCzt-21" value="+ country: string" style="text;strokeColor=none;fillColor=none;align=left;verticalAlign=top;spacingLeft=4;spacingRight=4;overflow=hidden;rotatable=0;points=[[0,0.5],[1,0.5]];portConstraint=eastwest;whiteSpace=wrap;html=1;" vertex="1" parent="XvRKIC91kqcAMC9PbCzt-15">
          <mxGeometry y="156" width="160" height="26" as="geometry" />
        </mxCell>
        <mxCell id="XvRKIC91kqcAMC9PbCzt-22" value="" style="endArrow=open;html=1;endSize=12;startArrow=diamondThin;startSize=14;startFill=1;edgeStyle=orthogonalEdgeStyle;rounded=0;" edge="1" source="XvRKIC91kqcAMC9PbCzt-8" target="XvRKIC91kqcAMC9PbCzt-15" parent="WIyWlLk6GJQsqaUBKTNV-1">
          <mxGeometry relative="1" as="geometry">
            <mxPoint x="350" y="1512" as="sourcePoint" />
            <mxPoint x="510" y="1512" as="targetPoint" />
            <Array as="points">
              <mxPoint x="460" y="1567" />
            </Array>
          </mxGeometry>
        </mxCell>
        <mxCell id="XvRKIC91kqcAMC9PbCzt-24" value="&lt;span style=&quot;font-weight: normal;&quot;&gt;«Resource»&lt;br style=&quot;border-color: var(--border-color);&quot;&gt;&lt;/span&gt;Order" style="swimlane;fontStyle=1;align=center;verticalAlign=top;childLayout=stackLayout;horizontal=1;startSize=42;horizontalStack=0;resizeParent=1;resizeParentMax=0;resizeLast=0;collapsible=1;marginBottom=0;whiteSpace=wrap;html=1;" vertex="1" collapsed="1" parent="WIyWlLk6GJQsqaUBKTNV-1">
          <mxGeometry x="640" y="1300" width="110" height="42" as="geometry">
            <mxRectangle x="580" y="1160" width="160" height="206" as="alternateBounds" />
          </mxGeometry>
        </mxCell>
        <mxCell id="XvRKIC91kqcAMC9PbCzt-25" value="+ totalValue: ###.##" style="text;strokeColor=none;fillColor=none;align=left;verticalAlign=top;spacingLeft=4;spacingRight=4;overflow=hidden;rotatable=0;points=[[0,0.5],[1,0.5]];portConstraint=eastwest;whiteSpace=wrap;html=1;" vertex="1" parent="XvRKIC91kqcAMC9PbCzt-24">
          <mxGeometry y="42" width="160" height="26" as="geometry" />
        </mxCell>
        <mxCell id="XvRKIC91kqcAMC9PbCzt-26" value="+ currency: string" style="text;strokeColor=none;fillColor=none;align=left;verticalAlign=top;spacingLeft=4;spacingRight=4;overflow=hidden;rotatable=0;points=[[0,0.5],[1,0.5]];portConstraint=eastwest;whiteSpace=wrap;html=1;" vertex="1" parent="XvRKIC91kqcAMC9PbCzt-24">
          <mxGeometry y="68" width="160" height="26" as="geometry" />
        </mxCell>
        <mxCell id="XvRKIC91kqcAMC9PbCzt-27" value="+ billingAddress: Address" style="text;strokeColor=#d6b656;fillColor=#fff2cc;align=left;verticalAlign=top;spacingLeft=4;spacingRight=4;overflow=hidden;rotatable=0;points=[[0,0.5],[1,0.5]];portConstraint=eastwest;whiteSpace=wrap;html=1;" vertex="1" parent="XvRKIC91kqcAMC9PbCzt-24">
          <mxGeometry y="94" width="160" height="26" as="geometry" />
        </mxCell>
        <mxCell id="XvRKIC91kqcAMC9PbCzt-28" value="+ shippingAddress: Address" style="text;strokeColor=#d6b656;fillColor=#fff2cc;align=left;verticalAlign=top;spacingLeft=4;spacingRight=4;overflow=hidden;rotatable=0;points=[[0,0.5],[1,0.5]];portConstraint=eastwest;whiteSpace=wrap;html=1;" vertex="1" parent="XvRKIC91kqcAMC9PbCzt-24">
          <mxGeometry y="120" width="160" height="26" as="geometry" />
        </mxCell>
        <mxCell id="XvRKIC91kqcAMC9PbCzt-29" value="" style="line;strokeWidth=1;fillColor=none;align=left;verticalAlign=middle;spacingTop=-1;spacingLeft=3;spacingRight=3;rotatable=0;labelPosition=right;points=[];portConstraint=eastwest;strokeColor=inherit;" vertex="1" parent="XvRKIC91kqcAMC9PbCzt-24">
          <mxGeometry y="146" width="160" height="8" as="geometry" />
        </mxCell>
        <mxCell id="XvRKIC91kqcAMC9PbCzt-30" value="GET orders/:id" style="text;strokeColor=none;fillColor=none;align=left;verticalAlign=top;spacingLeft=4;spacingRight=4;overflow=hidden;rotatable=0;points=[[0,0.5],[1,0.5]];portConstraint=eastwest;whiteSpace=wrap;html=1;" vertex="1" parent="XvRKIC91kqcAMC9PbCzt-24">
          <mxGeometry y="154" width="160" height="26" as="geometry" />
        </mxCell>
        <mxCell id="XvRKIC91kqcAMC9PbCzt-31" value="GET orders/:id/lineitems" style="text;strokeColor=none;fillColor=none;align=left;verticalAlign=top;spacingLeft=4;spacingRight=4;overflow=hidden;rotatable=0;points=[[0,0.5],[1,0.5]];portConstraint=eastwest;whiteSpace=wrap;html=1;" vertex="1" parent="XvRKIC91kqcAMC9PbCzt-24">
          <mxGeometry y="180" width="160" height="26" as="geometry" />
        </mxCell>
        <mxCell id="XvRKIC91kqcAMC9PbCzt-32" value="&lt;span style=&quot;font-weight: normal;&quot;&gt;«Resource»&lt;br style=&quot;border-color: var(--border-color);&quot;&gt;&lt;/span&gt;Customer" style="swimlane;fontStyle=1;align=center;verticalAlign=top;childLayout=stackLayout;horizontal=1;startSize=40;horizontalStack=0;resizeParent=1;resizeParentMax=0;resizeLast=0;collapsible=1;marginBottom=0;whiteSpace=wrap;html=1;" vertex="1" parent="WIyWlLk6GJQsqaUBKTNV-1">
          <mxGeometry x="790" y="1300" width="210" height="178" as="geometry" />
        </mxCell>
        <mxCell id="XvRKIC91kqcAMC9PbCzt-33" value="+ name: string" style="text;strokeColor=none;fillColor=none;align=left;verticalAlign=top;spacingLeft=4;spacingRight=4;overflow=hidden;rotatable=0;points=[[0,0.5],[1,0.5]];portConstraint=eastwest;whiteSpace=wrap;html=1;" vertex="1" parent="XvRKIC91kqcAMC9PbCzt-32">
          <mxGeometry y="40" width="210" height="26" as="geometry" />
        </mxCell>
        <mxCell id="XvRKIC91kqcAMC9PbCzt-34" value="+ username: string" style="text;strokeColor=none;fillColor=none;align=left;verticalAlign=top;spacingLeft=4;spacingRight=4;overflow=hidden;rotatable=0;points=[[0,0.5],[1,0.5]];portConstraint=eastwest;whiteSpace=wrap;html=1;" vertex="1" parent="XvRKIC91kqcAMC9PbCzt-32">
          <mxGeometry y="66" width="210" height="26" as="geometry" />
        </mxCell>
        <mxCell id="XvRKIC91kqcAMC9PbCzt-35" value="" style="line;strokeWidth=1;fillColor=none;align=left;verticalAlign=middle;spacingTop=-1;spacingLeft=3;spacingRight=3;rotatable=0;labelPosition=right;points=[];portConstraint=eastwest;strokeColor=inherit;" vertex="1" parent="XvRKIC91kqcAMC9PbCzt-32">
          <mxGeometry y="92" width="210" height="8" as="geometry" />
        </mxCell>
        <mxCell id="XvRKIC91kqcAMC9PbCzt-36" value="+ GET customers/:id" style="text;strokeColor=none;fillColor=none;align=left;verticalAlign=top;spacingLeft=4;spacingRight=4;overflow=hidden;rotatable=0;points=[[0,0.5],[1,0.5]];portConstraint=eastwest;whiteSpace=wrap;html=1;" vertex="1" parent="XvRKIC91kqcAMC9PbCzt-32">
          <mxGeometry y="100" width="210" height="26" as="geometry" />
        </mxCell>
        <mxCell id="XvRKIC91kqcAMC9PbCzt-37" value="+ GET customers/:id/addresses" style="text;strokeColor=none;fillColor=none;align=left;verticalAlign=top;spacingLeft=4;spacingRight=4;overflow=hidden;rotatable=0;points=[[0,0.5],[1,0.5]];portConstraint=eastwest;whiteSpace=wrap;html=1;" vertex="1" parent="XvRKIC91kqcAMC9PbCzt-32">
          <mxGeometry y="126" width="210" height="26" as="geometry" />
        </mxCell>
        <mxCell id="XvRKIC91kqcAMC9PbCzt-38" value="+ GET customers/:id/orders" style="text;strokeColor=none;fillColor=none;align=left;verticalAlign=top;spacingLeft=4;spacingRight=4;overflow=hidden;rotatable=0;points=[[0,0.5],[1,0.5]];portConstraint=eastwest;whiteSpace=wrap;html=1;" vertex="1" parent="XvRKIC91kqcAMC9PbCzt-32">
          <mxGeometry y="152" width="210" height="26" as="geometry" />
        </mxCell>
        <mxCell id="XvRKIC91kqcAMC9PbCzt-39" value="purchased by" style="endArrow=diamondThin;html=1;endSize=12;startArrow=none;startSize=14;startFill=0;edgeStyle=orthogonalEdgeStyle;rounded=0;endFill=0;" edge="1" source="XvRKIC91kqcAMC9PbCzt-24" target="XvRKIC91kqcAMC9PbCzt-32" parent="WIyWlLk6GJQsqaUBKTNV-1">
          <mxGeometry x="0.0604" y="-9" relative="1" as="geometry">
            <mxPoint x="700" y="1354" as="sourcePoint" />
            <mxPoint x="790" y="1401" as="targetPoint" />
            <Array as="points">
              <mxPoint x="700" y="1360" />
            </Array>
            <mxPoint as="offset" />
          </mxGeometry>
        </mxCell>
        <mxCell id="XvRKIC91kqcAMC9PbCzt-40" value="Address" style="swimlane;fontStyle=1;align=center;verticalAlign=top;childLayout=stackLayout;horizontal=1;startSize=26;horizontalStack=0;resizeParent=1;resizeParentMax=0;resizeLast=0;collapsible=1;marginBottom=0;whiteSpace=wrap;html=1;" vertex="1" parent="WIyWlLk6GJQsqaUBKTNV-1">
          <mxGeometry x="620" y="1466" width="160" height="182" as="geometry" />
        </mxCell>
        <mxCell id="XvRKIC91kqcAMC9PbCzt-41" value="+ name: string" style="text;strokeColor=none;fillColor=none;align=left;verticalAlign=top;spacingLeft=4;spacingRight=4;overflow=hidden;rotatable=0;points=[[0,0.5],[1,0.5]];portConstraint=eastwest;whiteSpace=wrap;html=1;" vertex="1" parent="XvRKIC91kqcAMC9PbCzt-40">
          <mxGeometry y="26" width="160" height="26" as="geometry" />
        </mxCell>
        <mxCell id="XvRKIC91kqcAMC9PbCzt-42" value="+ street: string" style="text;strokeColor=none;fillColor=none;align=left;verticalAlign=top;spacingLeft=4;spacingRight=4;overflow=hidden;rotatable=0;points=[[0,0.5],[1,0.5]];portConstraint=eastwest;whiteSpace=wrap;html=1;" vertex="1" parent="XvRKIC91kqcAMC9PbCzt-40">
          <mxGeometry y="52" width="160" height="26" as="geometry" />
        </mxCell>
        <mxCell id="XvRKIC91kqcAMC9PbCzt-43" value="+ city: string" style="text;strokeColor=none;fillColor=none;align=left;verticalAlign=top;spacingLeft=4;spacingRight=4;overflow=hidden;rotatable=0;points=[[0,0.5],[1,0.5]];portConstraint=eastwest;whiteSpace=wrap;html=1;" vertex="1" parent="XvRKIC91kqcAMC9PbCzt-40">
          <mxGeometry y="78" width="160" height="26" as="geometry" />
        </mxCell>
        <mxCell id="XvRKIC91kqcAMC9PbCzt-44" value="+ state: string" style="text;strokeColor=none;fillColor=none;align=left;verticalAlign=top;spacingLeft=4;spacingRight=4;overflow=hidden;rotatable=0;points=[[0,0.5],[1,0.5]];portConstraint=eastwest;whiteSpace=wrap;html=1;" vertex="1" parent="XvRKIC91kqcAMC9PbCzt-40">
          <mxGeometry y="104" width="160" height="26" as="geometry" />
        </mxCell>
        <mxCell id="XvRKIC91kqcAMC9PbCzt-45" value="+ postalCode: string" style="text;strokeColor=none;fillColor=none;align=left;verticalAlign=top;spacingLeft=4;spacingRight=4;overflow=hidden;rotatable=0;points=[[0,0.5],[1,0.5]];portConstraint=eastwest;whiteSpace=wrap;html=1;" vertex="1" parent="XvRKIC91kqcAMC9PbCzt-40">
          <mxGeometry y="130" width="160" height="26" as="geometry" />
        </mxCell>
        <mxCell id="XvRKIC91kqcAMC9PbCzt-46" value="+ country: string" style="text;strokeColor=none;fillColor=none;align=left;verticalAlign=top;spacingLeft=4;spacingRight=4;overflow=hidden;rotatable=0;points=[[0,0.5],[1,0.5]];portConstraint=eastwest;whiteSpace=wrap;html=1;" vertex="1" parent="XvRKIC91kqcAMC9PbCzt-40">
          <mxGeometry y="156" width="160" height="26" as="geometry" />
        </mxCell>
        <mxCell id="XvRKIC91kqcAMC9PbCzt-48" value="AddressBook" style="swimlane;fontStyle=1;align=center;verticalAlign=top;childLayout=stackLayout;horizontal=1;startSize=30;horizontalStack=0;resizeParent=1;resizeParentMax=0;resizeLast=0;collapsible=1;marginBottom=0;whiteSpace=wrap;html=1;" vertex="1" parent="WIyWlLk6GJQsqaUBKTNV-1">
          <mxGeometry x="850" y="1610" width="160" height="38" as="geometry">
            <mxRectangle x="640" y="1530" width="120" height="30" as="alternateBounds" />
          </mxGeometry>
        </mxCell>
        <mxCell id="XvRKIC91kqcAMC9PbCzt-52" value="" style="endArrow=open;html=1;endSize=12;startArrow=diamondThin;startSize=14;startFill=1;edgeStyle=orthogonalEdgeStyle;rounded=0;" edge="1" parent="WIyWlLk6GJQsqaUBKTNV-1" source="XvRKIC91kqcAMC9PbCzt-48" target="XvRKIC91kqcAMC9PbCzt-40">
          <mxGeometry relative="1" as="geometry">
            <mxPoint x="730" y="1559" as="sourcePoint" />
            <mxPoint x="920" y="1677" as="targetPoint" />
            <Array as="points">
              <mxPoint x="870" y="1520" />
            </Array>
          </mxGeometry>
        </mxCell>
        <mxCell id="XvRKIC91kqcAMC9PbCzt-56" value="contains" style="edgeLabel;html=1;align=center;verticalAlign=middle;resizable=0;points=[];" vertex="1" connectable="0" parent="XvRKIC91kqcAMC9PbCzt-52">
          <mxGeometry x="0.1444" y="-2" relative="1" as="geometry">
            <mxPoint x="-17" y="13" as="offset" />
          </mxGeometry>
        </mxCell>
        <mxCell id="XvRKIC91kqcAMC9PbCzt-53" value="manages" style="endArrow=open;html=1;endSize=12;startArrow=none;startSize=14;startFill=0;edgeStyle=orthogonalEdgeStyle;rounded=0;" edge="1" parent="WIyWlLk6GJQsqaUBKTNV-1" source="XvRKIC91kqcAMC9PbCzt-32" target="XvRKIC91kqcAMC9PbCzt-48">
          <mxGeometry relative="1" as="geometry">
            <mxPoint x="670" y="1450" as="sourcePoint" />
            <mxPoint x="830" y="1450" as="targetPoint" />
            <Array as="points">
              <mxPoint x="920" y="1500" />
              <mxPoint x="920" y="1500" />
            </Array>
          </mxGeometry>
        </mxCell>
        <mxCell id="XvRKIC91kqcAMC9PbCzt-54" value="1" style="edgeLabel;resizable=0;html=1;align=left;verticalAlign=top;" connectable="0" vertex="1" parent="XvRKIC91kqcAMC9PbCzt-53">
          <mxGeometry x="-1" relative="1" as="geometry" />
        </mxCell>
        <mxCell id="XvRKIC91kqcAMC9PbCzt-55" value="1" style="edgeLabel;resizable=0;html=1;align=right;verticalAlign=top;" connectable="0" vertex="1" parent="XvRKIC91kqcAMC9PbCzt-53">
          <mxGeometry x="1" relative="1" as="geometry">
            <mxPoint x="-10" y="-30" as="offset" />
          </mxGeometry>
        </mxCell>
      </root>
    </mxGraphModel>
  </diagram>
</mxfile>
